Simulation
nRows=19
nColumns=15
endheader
time  TH_x TH_y TH_z SC_y  SC_z  SC_x  AC_y  AC_z  AC_x  GH_y  GH_z  GH_yy  EL_x  PS_y
0.0  0.000000  0.000000  0.000000  -22.587087361196772  4.437246235967018  -6.459853284359782  56.88150011787907  8.827115050601343  7.461404700488171  -155.7187065239635  4.10045481052129  -166.81341031894559  20.1978401626998  120.000000
0.04016479400749064  0.000000  0.000000  0.000000  -22.607183693080685  4.457364104277321  -6.440652117997488  56.85040609128847  8.880178808485745  7.449958609990288  -154.81018690085884  3.961594752865369  -167.81873007681705  20.111473969831348  120.000000
0.08032958801498127  0.000000  0.000000  0.000000  -22.66971941674306  4.519399045633028  -6.386842132585453  56.75059242174706  9.032994417162179  7.409258885181354  -151.5300792469387  3.560364367791525  -171.3931904289638  19.86095267911769  120.000000
0.12049438202247191  0.000000  0.000000  0.000000  -22.7852190232353  4.6249960304782585  -6.310637202790739  56.568517545689474  9.265289291854305  7.334220393934659  -143.95952850508007  2.955903110680242  -179.46230590500844  19.4714181782533  120.000000
0.16065917602996255  0.000000  0.000000  0.000000  -22.968084945154928  4.769527087614837  -6.2290542609839  56.29600352230841  9.550641830144937  7.22770688049009  -127.38245365993764  2.296312123907012  163.25513848931072  18.974188051220157  120.000000
0.20082397003745317  0.000000  0.000000  0.000000  -23.230826388135387  4.945829719578416  -6.155413894076554  55.93329965821649  9.866163596179693  7.096156600497479  -94.95212204414278  1.9672137484349037  129.91629792178844  18.399204801115875  120.000000
0.24098876404494382  0.000000  0.000000  0.000000  -23.58479675970633  5.148964125201546  -6.094414619160885  55.48747662188726  10.194071955746635  6.948541901894708  -59.603909782436965  2.4867570793688163  93.46668164449703  17.773587018684808  120.000000
0.28115355805243447  0.000000  0.000000  0.000000  -24.03719743282632  5.377039091954852  -6.041512587280296  54.97353448710437  10.522948414083698  6.791602647974333  -39.606619124516534  3.7261127908964995  72.18994079919996  17.119631576648366  120.000000
0.3213183520599251  0.000000  0.000000  0.000000  -24.589864770984686  5.63204403557543  -5.9839579536545  54.41010660223856  10.846457293464596  6.630600098086166  -29.640217205431274  5.353123013211658  60.78522056829633  16.455586736092396  120.000000
0.3614831460674157  0.000000  0.000000  0.000000  -25.239998518253994  5.9164835623484695  -5.905906711215428  53.81679811990752  11.162422902441824  6.470174382361617  -24.18205522213643  7.224686214890939  53.75213077507382  15.795225358449208  120.000000
0.40164794007490634  0.000000  0.000000  0.000000  -25.981045415375075  6.232300589542669  -5.792195043985077  53.21329171037403  11.47073423844691  6.3145737560394055  -20.913171982055477  9.282530334410213  48.796410910782356  15.149309588142245  120.000000
0.441812734082397  0.000000  0.000000  0.000000  -26.80359683185967  6.580646756118722  -5.62654340225864  52.6176178066972  11.769421509699699  6.16703019520806  -18.850359712744392  11.494326995345833  44.961174055275244  14.526104320050685  120.000000
0.48197752808988764  0.000000  0.000000  0.000000  -27.696024135634552  6.961257714497469  -5.390935947940526  52.04674295476709  12.053125739710364  6.028539074202633  -17.526202062788713  13.835136665029015  41.80616329443696  13.931679048059058  120.000000
0.5221423220973783  0.000000  0.000000  0.000000  -28.644881862637032  7.371933661850796  -5.068032033922267  51.516354697603674  12.313805590695488  5.898802219061686  -16.692124846070357  16.280474151080014  39.11010754241136  13.370317846181967  120.000000
0.5623071161048689  0.000000  0.000000  0.000000  -29.635810429902424  7.808612461879843  -4.644824605554377  51.04051715999377  12.543873822683553  5.778244440366348  -16.19974811732034  18.804149933167626  36.75102227841128  12.844444721945623  120.000000
0.6024719101123596  0.000000  0.000000  0.000000  -30.6540115723172  8.26674871330331  -4.117045689096584  50.63091373430724  12.741058218982184  5.671084929321223  -15.949733685863663  21.378950381929076  34.654057009169435  12.354773417911437  120.000000
0.6426367041198502  0.000000  0.000000  0.000000  -31.68483228428609  8.741980313320544  -3.487013686984049  50.29657381232004  12.908265861173623  5.584576607473381  -15.869509264570002  23.978299462607886  32.76805090621218  11.89997420436568  120.000000
0.6828014981273408  0.000000  0.000000  0.000000  -32.71418876619894  9.230088380568763  -2.757732656910963  50.04379850447847  13.049997129335475  5.5257405035967775  -15.904109237216188  26.57714552549198  31.055496111261252  11.476513342229886  120.000000
0.7229662921348314  0.000000  0.000000  0.000000  -33.728465895147366  9.72678515462382  -1.9328766002832567  49.87556330936555  13.1730055490478  5.5015750359252955  -16.01186718907963  29.152098512804272  29.48763243884584  11.078721029980061  120.000000
